<?xml version="1.0" encoding="UTF-8"?><svg id="Layer_4" xmlns="http://www.w3.org/2000/svg" width="182mm" height="33mm" viewBox="0 0 515.91 93.54"><defs><style>.cls-1{fill:#231f20;stroke-width:0px;}</style></defs><path class="cls-1" d="M2.04,70.78v-.85l3.01-.77c1.61-.45,2.85-1,3.74-1.66.88-.65,1.61-1.57,2.17-2.76L35.8,14.51h10.25l24.48,50.58c.64,1.25,1.37,2.2,2.17,2.85.8.65,2.05,1.21,3.74,1.66l1.45.34v.85h-30.62v-.85l1.81-.42c1.69-.45,2.71-1.09,3.07-1.91.36-.82.3-1.8-.18-2.93l-5.67-12.24h-26.77l-5.79,11.98c-.56,1.25-.74,2.24-.54,2.98.2.74,1.15,1.33,2.83,1.78l2.65.77v.85H2.04ZM20.37,50.72h25.2l-12.18-26.44-13.02,26.44Z"/><path class="cls-1" d="M81.62,70.78v-.85l2.17-.59c1.61-.45,2.71-1.02,3.32-1.7.6-.68.9-1.59.9-2.72V20.55c0-1.19-.3-2.12-.9-2.81-.6-.68-1.71-1.22-3.32-1.61l-2.17-.6v-.85h34.6c9.81,0,16.88,1.26,21.22,3.78,4.34,2.52,6.51,5.71,6.51,9.56,0,2.89-1.59,5.51-4.76,7.86-3.18,2.35-8.62,4.01-16.34,4.97,8.84.68,15.31,2.31,19.41,4.89,4.1,2.58,6.15,5.71,6.15,9.39,0,1.81-.56,3.64-1.69,5.48-1.13,1.84-3.04,3.53-5.73,5.06-2.69,1.53-6.37,2.76-11.03,3.7-4.66.94-10.57,1.4-17.72,1.4h-30.62ZM105.86,40.78h5.18c5.38,0,9.26-.88,11.63-2.63,2.37-1.76,3.56-4.82,3.56-9.18s-1.08-7.76-3.26-9.69c-2.17-1.93-5.71-2.89-10.61-2.89h-6.51v24.39ZM105.86,69.08h6.03c6.03,0,10.51-1.13,13.44-3.4,2.93-2.27,4.4-5.81,4.4-10.62,0-4.53-1.41-7.76-4.22-9.69-2.81-1.93-7.44-2.89-13.87-2.89h-5.79v26.6Z"/><path class="cls-1" d="M151.67,70.78v-.85l2.77-.77c1.37-.4,2.31-.92,2.83-1.57.52-.65.78-1.54.78-2.68V20.55c0-1.13-.22-2.03-.66-2.68-.44-.65-1.43-1.18-2.95-1.57l-2.77-.77v-.85h57.75l.72,13.09h-1.21l-5.18-7.99c-.72-1.02-1.49-1.84-2.29-2.46-.8-.62-2.01-.94-3.62-.94h-21.7v24.56h12.9c1.61,0,2.83-.3,3.68-.89.84-.59,1.59-1.4,2.23-2.42l2.41-3.4h1.21v15.3h-1.21l-2.41-3.57c-.72-1.02-1.49-1.83-2.29-2.42-.8-.59-2.01-.89-3.62-.89h-12.9v26.43h24.35c1.61,0,2.85-.3,3.74-.89.88-.6,1.61-1.43,2.17-2.51l4.94-7.99h1.21l-.72,13.09h-60.16Z"/><path class="cls-1" d="M220.15,70.78v-.85l3.98-.85c1.45-.28,2.49-.83,3.13-1.66.64-.82.96-1.8.96-2.93V23.61c-.89-1.36-1.59-2.38-2.11-3.06-.52-.68-1.11-1.26-1.75-1.74-.64-.48-1.53-1.09-2.65-1.83l-2.05-1.44v-.85h21.34l40.03,38.5V21.14c0-1.13-.26-2.15-.78-3.06-.52-.91-1.59-1.5-3.2-1.78l-3.98-.77v-.85h17.24v.85l-3.25.77c-1.45.34-2.33.94-2.65,1.78-.32.85-.48,1.84-.48,2.98v49.98h-6.75l-46.06-44.62v38.08c0,1.13.24,2.1.72,2.89.48.79,1.49,1.36,3.01,1.7l3.62.85v.85h-18.33Z"/><path class="cls-1" d="M296.11,70.78v-.85l2.17-.59c1.61-.45,2.71-1.02,3.32-1.7.6-.68.9-1.59.9-2.72V20.55c0-1.19-.3-2.12-.9-2.81-.6-.68-1.71-1.22-3.32-1.61l-2.17-.6v-.85h34.6c9.81,0,16.88,1.26,21.22,3.78,4.34,2.52,6.51,5.71,6.51,9.56,0,2.89-1.59,5.51-4.76,7.86-3.18,2.35-8.62,4.01-16.34,4.97,8.84.68,15.31,2.31,19.41,4.89,4.1,2.58,6.15,5.71,6.15,9.39,0,1.81-.56,3.64-1.69,5.48-1.13,1.84-3.04,3.53-5.73,5.06-2.69,1.53-6.37,2.76-11.03,3.7-4.66.94-10.57,1.4-17.72,1.4h-30.62ZM320.35,40.78h5.18c5.38,0,9.26-.88,11.64-2.63,2.37-1.76,3.56-4.82,3.56-9.18s-1.08-7.76-3.26-9.69c-2.17-1.93-5.71-2.89-10.61-2.89h-6.51v24.39ZM320.35,69.08h6.03c6.03,0,10.51-1.13,13.44-3.4,2.93-2.27,4.4-5.81,4.4-10.62,0-4.53-1.41-7.76-4.22-9.69-2.81-1.93-7.44-2.89-13.87-2.89h-5.79v26.6Z"/><path class="cls-1" d="M362.19,70.78v-.85l3.01-.77c1.61-.45,2.85-1,3.74-1.66.88-.65,1.61-1.57,2.17-2.76l24.84-50.23h10.25l24.48,50.58c.64,1.25,1.37,2.2,2.17,2.85.8.65,2.05,1.21,3.74,1.66l1.45.34v.85h-30.62v-.85l1.81-.42c1.69-.45,2.71-1.09,3.07-1.91.36-.82.3-1.8-.18-2.93l-5.67-12.24h-26.77l-5.79,11.98c-.56,1.25-.74,2.24-.54,2.98.2.74,1.15,1.33,2.83,1.78l2.65.77v.85h-16.64ZM380.51,50.72h25.2l-12.18-26.44-13.02,26.44Z"/><path class="cls-1" d="M441.76,70.78v-.85l2.53-.59c1.61-.4,2.65-.92,3.13-1.57.48-.65.72-1.57.72-2.76V20.55c0-1.13-.22-2.03-.66-2.68-.44-.65-1.43-1.18-2.95-1.57l-2.77-.77v-.85h34.48c9.48,0,16.76,1.26,21.82,3.78,5.06,2.52,7.6,6.02,7.6,10.5,0,2.49-1.33,4.99-3.98,7.48-2.65,2.49-6.83,4.42-12.54,5.78l16.76,23.46c.72.96,1.55,1.74,2.47,2.34.92.6,2.15,1.12,3.68,1.57l1.57.42v.76h-21.58l-17.84-26.77h-8.2v21c0,1.08.24,1.95.72,2.63.48.68,1.49,1.19,3.01,1.53l2.89.77v.85h-30.87ZM466,42.31h5.79c5.79,0,9.97-1.09,12.54-3.27,2.57-2.18,3.86-5.43,3.86-9.73s-1.21-7.61-3.62-9.73-6.47-3.19-12.18-3.19h-6.39v25.92Z"/><rect class="cls-1" x="26.03" y="14.52" width="15.12" height="2"/><rect class="cls-1" x="386.67" y="14.54" width="15.12" height="2"/><path class="cls-1" d="M37.57,35.64c-8.13,0-14.75-6.62-14.75-14.75s6.62-14.75,14.75-14.75,14.75,6.62,14.75,14.75-6.62,14.75-14.75,14.75ZM37.57,8.13c-7.03,0-12.75,5.72-12.75,12.75s5.72,12.75,12.75,12.75,12.75-5.72,12.75-12.75-5.72-12.75-12.75-12.75Z"/></svg>