<?xml version="1.0" encoding="UTF-8"?><svg id="Layer_4" xmlns="http://www.w3.org/2000/svg" width="28mm" height="33mm" viewBox="0 0 79.37 93.54"><defs><style>.cls-1{fill:#fff;stroke-width:0px;}</style></defs><path class="cls-1" d="M1.46,70.78v-.85l3.01-.76c1.61-.45,2.85-1.01,3.74-1.66.88-.65,1.61-1.57,2.17-2.76L35.22,14.51h10.25l24.48,50.58c.64,1.25,1.37,2.2,2.17,2.85.8.65,2.05,1.2,3.74,1.66l1.45.34v.85h-30.62v-.85l1.81-.42c1.69-.45,2.71-1.09,3.07-1.91.36-.82.3-1.8-.18-2.93l-5.67-12.24h-26.77l-5.79,11.99c-.56,1.25-.74,2.24-.54,2.97.2.74,1.15,1.33,2.83,1.79l2.65.76v.85H1.46ZM19.79,50.72h25.2l-12.18-26.43-13.02,26.43Z"/><rect class="cls-1" x="25.45" y="14.52" width="15.12" height="2"/><path class="cls-1" d="M36.99,35.64c-8.13,0-14.75-6.62-14.75-14.75s6.62-14.75,14.75-14.75,14.75,6.62,14.75,14.75-6.62,14.75-14.75,14.75ZM36.99,8.13c-7.03,0-12.75,5.72-12.75,12.75s5.72,12.75,12.75,12.75,12.75-5.72,12.75-12.75-5.72-12.75-12.75-12.75Z"/></svg>