<svg width="31" height="30" viewBox="0 0 31 30" fill="none" xmlns="http://www.w3.org/2000/svg">
<path d="M15.2862 21.0112C18.7566 21.0112 21.57 18.3337 21.57 15.031C21.57 11.7282 18.7566 9.05078 15.2862 9.05078C11.8158 9.05078 9.00244 11.7282 9.00244 15.031C9.00244 18.3337 11.8158 21.0112 15.2862 21.0112Z" stroke="#F2E9CE" stroke-width="2" stroke-linecap="round" stroke-linejoin="round"/>
<path d="M1.14746 21.0119V9.05146C1.14746 4.92298 4.66416 1.57617 9.00221 1.57617H21.5698C25.9078 1.57617 29.4245 4.92298 29.4245 9.05146V21.0119C29.4245 25.1404 25.9078 28.4872 21.5698 28.4872H9.00221C4.66416 28.4872 1.14746 25.1404 1.14746 21.0119Z" stroke="#F2E9CE" stroke-width="2"/>
<path d="M23.9263 6.82529L23.9431 6.80664" stroke="#F2E9CE" stroke-width="2" stroke-linecap="round" stroke-linejoin="round"/>
</svg>
